<?xml version="1.0" standalone="no"?><!DOCTYPE svg PUBLIC "-//W3C//DTD SVG 1.1//EN" "http://www.w3.org/Graphics/SVG/1.1/DTD/svg11.dtd"><svg t="1591339298179" class="icon" viewBox="0 0 1024 1024" version="1.1" xmlns="http://www.w3.org/2000/svg" p-id="8454" xmlns:xlink="http://www.w3.org/1999/xlink" width="64" height="64"><defs><style type="text/css"></style></defs><path d="M896 384c70.656 0 128 57.344 128 128s-57.344 128-128 128c-35.392 0-64 28.608-64 64v128c0 105.984-86.016 192-192 192v-128c35.392 0 64-28.608 64-64v-128c0-105.984 86.016-192 192-192-105.984 0-192-85.952-192-192V192a64 64 0 0 0-64-64V0c105.984 0 192 85.952 192 192v128a64 64 0 0 0 64 64zM192 192a192 192 0 0 1 192-192v128c-35.328 0-64 28.672-64 64v128a192 192 0 0 1-192 192c106.048 0 192 86.016 192 192v128a64 64 0 0 0 64 64v128c-106.048 0-192-86.016-192-192v-128a64 64 0 0 0-64-64c-70.656 0-128-57.344-128-128s57.344-128 128-128c35.328 0 64-28.672 64-64V192z m320 256a64.021333 64.021333 0 0 1 0 128 64.021333 64.021333 0 0 1 0-128z" p-id="8455" fill="#89bdd3"></path></svg>